<?xml version="1.0" encoding="iso-8859-1"?>
<!-- Uploaded to: SVG Repo, www.svgrepo.com, Generator: SVG Repo Mixer Tools -->
<svg height="800px" width="800px" version="1.1" id="Layer_1" xmlns="http://www.w3.org/2000/svg" xmlns:xlink="http://www.w3.org/1999/xlink" 
	 viewBox="0 0 512 512" xml:space="preserve">
<path style="fill:#F64B4A;" d="M488.785,275.751v51.03c0,15.266-12.376,27.641-27.641,27.641h-21.697
	c-6.614,21.097-16.733,40.633-29.667,57.944v64.263c0,15.971-10.586,29.47-25.13,33.859h-0.012
	c-3.246,0.984-6.676,1.512-10.241,1.512h-13.18c-19.536,0-35.371-15.835-35.371-35.371c-22.069,8.754-46.141,13.561-71.333,13.561
	s-49.276-4.807-71.345-13.561c0,19.536-15.835,35.371-35.371,35.371h-13.18c-19.535,0-35.371-15.837-35.371-35.371v-64.263
	c-24.196-32.335-38.519-72.476-38.519-115.95c-30.712,0-37.511-46.83-37.511-46.83h43.24
	c13.635-54.92,50.678-100.606,99.954-125.797l176.193,0.012c11.729,5.987,22.782,13.155,32.986,21.319
	c9.467-13.819,25.388-22.892,43.412-22.892h10.352v90.586c5.373,11.213,9.713,23.028,12.86,35.298h18.931
	C476.409,248.111,488.785,260.485,488.785,275.751z"/>
<g>
	<path style="fill:#E84242;" d="M132.928,476.629v-64.263c-0.756-1.011-1.502-2.029-2.239-3.054
		c-27.831-38.745-39.456-86.825-33.687-134.179l3.112-25.547h0.025c13.635-54.917,50.676-100.604,99.949-125.795l-33.678-0.002
		c-49.276,25.191-86.32,70.878-99.954,125.797H66.43H23.215c0,0,6.799,46.83,37.511,46.83c0,43.473,14.323,83.615,38.519,115.95
		v64.263c0,19.536,15.835,35.371,35.371,35.371h13.18c3.565,0,7.005-0.532,10.251-1.513
		C143.513,506.09,132.928,492.598,132.928,476.629z"/>
	<path style="fill:#E84242;" d="M429.353,122.227v5.471c-8.09,4.008-41.387,55.233-41.387,74.944
		c-6.258-5.016-5.515-53.305-12.377-57.522c9.467-13.819,25.388-22.892,43.412-22.892
		C419.001,122.227,429.353,122.227,429.353,122.227z"/>
	<path style="fill:#E84242;" d="M384.638,510.488c-3.246,0.984-6.676,1.512-10.241,1.512h-13.18
		c-19.536,0-35.371-15.835-35.371-35.371c11.163-2.287,12.897-6.295,23.273-10.413C349.119,482.186,370.106,506.074,384.638,510.488
		z"/>
	<path style="fill:#E84242;" d="M216.85,476.629c0,3.337-0.472,6.562-1.335,9.622c12.599,2.574,25.641,3.939,38.998,3.939
		c5.675,0,11.289-0.257,16.84-0.735C252.258,487.811,233.947,483.41,216.85,476.629z"/>
	<path style="fill:#E84242;" d="M368.384,177.311l-9.282,15.946l-7.967-4.635c-11.631-6.762-23.925-12.258-36.662-16.413
		c-19.241-6.307-39.49-9.553-59.96-9.553c-2.102,0-4.192,0.037-6.283,0.111c-18.331,0.59-36.416,3.787-53.69,9.442
		c-12.737,4.156-25.044,9.651-36.662,16.413l-7.967,4.635l-9.27-15.946l7.967-4.635c10.008-5.828,20.483-10.795,31.277-14.864
		c21.577-8.139,44.469-12.725,67.718-13.487c1.721-0.049,3.442-0.086,5.164-0.098c0.578-0.012,1.168-0.012,1.746-0.012
		c2.299,0,4.61,0.037,6.897,0.111c23.249,0.762,46.141,5.348,67.718,13.487c10.795,4.069,21.257,9.036,31.277,14.864
		L368.384,177.311z"/>
</g>
<path style="fill:#FED159;" d="M351.053,96.561c0,23.261-8.225,44.592-21.921,61.251c-4.352,5.299-9.27,10.131-14.655,14.397
	c-19.241-6.307-39.49-9.553-59.96-9.553c-2.102,0-4.192,0.037-6.283,0.111c-18.331,0.59-36.416,3.787-53.69,9.442
	c-5.385-4.266-10.303-9.098-14.655-14.397c-13.696-16.659-21.921-37.99-21.921-61.251C157.968,43.24,201.183,0,254.504,0
	c11.274,0,22.093,1.93,32.15,5.496C324.177,18.737,351.053,54.514,351.053,96.561z"/>
<path style="fill:#FFE4A9;" d="M351.048,96.561c0,23.261-8.225,44.592-21.921,61.251c-4.352,5.299-9.27,10.131-14.655,14.397
	c-19.241-6.307-39.49-9.553-59.96-9.553c-2.102,0-4.192,0.037-6.282,0.111l3.529-14.409l1.008-4.131l6.713-27.478l4.229-17.335
	l3.369-13.807l4.242-17.335l3.369-13.807L286.65,5.496C324.172,18.737,351.048,54.514,351.048,96.561z"/>
<polygon style="fill:#EAB64E;" points="287.092,68.275 287.092,54.46 261.413,54.46 261.413,36.663 247.599,36.663 247.599,54.46 
	221.918,54.46 221.918,99.42 273.278,99.42 273.278,116.747 221.918,116.747 221.918,130.563 247.599,130.563 247.599,148.359 
	261.413,148.359 261.413,130.563 287.092,130.563 287.092,85.604 235.733,85.604 235.733,68.275 "/>
<path style="fill:#F6C454;" d="M329.132,157.812c-4.352,5.299-9.27,10.131-14.655,14.397c-19.241-6.307-39.49-9.553-59.96-9.553
	c-2.102,0-4.192,0.037-6.283,0.111c-18.331,0.59-36.416,3.787-53.69,9.442c-5.385-4.266-10.303-9.098-14.655-14.397
	c21.577-8.139,44.469-12.725,67.718-13.487c1.721-0.049,3.442-0.086,5.164-0.098c0.578-0.012,1.168-0.012,1.746-0.012
	c2.299,0,4.61,0.037,6.897,0.111C284.663,145.088,307.555,149.673,329.132,157.812z"/>
<circle style="fill:#E84242;" cx="369.93" cy="294.441" r="13.524"/>
</svg>